<?xml version="1.0" encoding="UTF-8"?>
<svg version="1.1" xmlns="http://www.w3.org/2000/svg" width="32" height="32">
<path d="M0 0 C1.051875 -0.00515625 2.10375 -0.0103125 3.1875 -0.015625 C4.280625 -0.00015625 5.37375 0.0153125 6.5 0.03125 C8.1396875 0.00804688 8.1396875 0.00804688 9.8125 -0.015625 C10.864375 -0.01046875 11.91625 -0.0053125 13 0 C14.43859375 0.00676758 14.43859375 0.00676758 15.90625 0.01367188 C19.3011717 0.69112237 20.46832431 1.75266926 22.5 4.53125 C23.01757812 7.125 23.01757812 7.125 23.03125 10.03125 C23.03898437 11.6090625 23.03898437 11.6090625 23.046875 13.21875 C23.03140625 14.311875 23.0159375 15.405 23 16.53125 C23.01546875 17.624375 23.0309375 18.7175 23.046875 19.84375 C23.04171875 20.895625 23.0365625 21.9475 23.03125 23.03125 C23.02673828 23.9903125 23.02222656 24.949375 23.01757812 25.9375 C22.34012763 29.3324217 21.27858074 30.49957431 18.5 32.53125 C15.90625 33.04882812 15.90625 33.04882812 13 33.0625 C11.948125 33.06765625 10.89625 33.0728125 9.8125 33.078125 C8.719375 33.06265625 7.62625 33.0471875 6.5 33.03125 C5.406875 33.04671875 4.31375 33.0621875 3.1875 33.078125 C2.135625 33.07296875 1.08375 33.0678125 0 33.0625 C-0.9590625 33.05798828 -1.918125 33.05347656 -2.90625 33.04882812 C-6.3011717 32.37137763 -7.46832431 31.30983074 -9.5 28.53125 C-10.01757812 25.9375 -10.01757812 25.9375 -10.03125 23.03125 C-10.03640625 21.979375 -10.0415625 20.9275 -10.046875 19.84375 C-10.03140625 18.750625 -10.0159375 17.6575 -10 16.53125 C-10.01546875 15.438125 -10.0309375 14.345 -10.046875 13.21875 C-10.03914062 11.6409375 -10.03914062 11.6409375 -10.03125 10.03125 C-10.02673828 9.0721875 -10.02222656 8.113125 -10.01757812 7.125 C-8.88515929 1.45008601 -5.39576194 0.02538329 0 0 Z " fill="#DADFE4" transform="translate(9.5,-0.53125)"/>
<path d="M0 0 C1.299375 0.02900391 1.299375 0.02900391 2.625 0.05859375 C3.49125 0.05988281 4.3575 0.06117188 5.25 0.0625 C8.06725718 0.57683478 9.00362736 1.15174839 10.625 3.49609375 C10.84765625 5.43359375 10.84765625 5.43359375 10.6875 7.49609375 C10.43101004 10.96857326 10.53472312 11.36067843 12.625 14.49609375 C12.5 16.99609375 12.5 16.99609375 11.625 19.49609375 C9.5625 21.30859375 9.5625 21.30859375 7.625 22.49609375 C7.625 19.85609375 7.625 17.21609375 7.625 14.49609375 C5.315 13.83609375 3.005 13.17609375 0.625 12.49609375 C0.625 11.50609375 0.625 10.51609375 0.625 9.49609375 C2.275 9.16609375 3.925 8.83609375 5.625 8.49609375 C5.955 7.17609375 6.285 5.85609375 6.625 4.49609375 C2.99614676 4.34460077 2.99614676 4.34460077 -0.375 5.49609375 C-0.375 9.12609375 -0.375 12.75609375 -0.375 16.49609375 C0.594375 16.47546875 1.56375 16.45484375 2.5625 16.43359375 C5.625 16.49609375 5.625 16.49609375 6.625 17.49609375 C6.625 19.14609375 6.625 20.79609375 6.625 22.49609375 C2.665 22.49609375 -1.295 22.49609375 -5.375 22.49609375 C-5.375 20.84609375 -5.375 19.19609375 -5.375 17.49609375 C-6.035 17.16609375 -6.695 16.83609375 -7.375 16.49609375 C-6.055 16.49609375 -4.735 16.49609375 -3.375 16.49609375 C-3.375 12.86609375 -3.375 9.23609375 -3.375 5.49609375 C-4.035 5.16609375 -4.695 4.83609375 -5.375 4.49609375 C-3.05223669 0.63755602 -3.05223669 0.63755602 0 0 Z " fill="#1A4371" transform="translate(13.375,4.50390625)"/>
<path d="M0 0 C3.63 0 7.26 0 11 0 C11 1.65 11 3.3 11 5 C7.37 5 3.74 5 0 5 C0 3.35 0 1.7 0 0 Z " fill="#85A4B6" transform="translate(9,22)"/>
<path d="M0 0 C1.60332791 -0.08121924 3.20784026 -0.13929134 4.8125 -0.1875 C6.15248047 -0.23970703 6.15248047 -0.23970703 7.51953125 -0.29296875 C10 0 10 0 11.84375 1.375 C13 3 13 3 12.6875 5.1875 C12.3471875 6.0846875 12.3471875 6.0846875 12 7 C11.34 5.68 10.68 4.36 10 3 C8.02 3 6.04 3 4 3 C4 3.66 4 4.32 4 5 C3.34 5 2.68 5 2 5 C2 5.99 2 6.98 2 8 C1.34 8 0.68 8 0 8 C0 5.36 0 2.72 0 0 Z " fill="#7EB0B7" transform="translate(11,5)"/>
<path d="M0 0 C2.8125 -0.25 2.8125 -0.25 6 0 C8.38542151 2.14687936 8.95335174 3.36247377 9.1875 6.5625 C9.125625 7.366875 9.06375 8.17125 9 9 C9 9.99 9 10.98 9 12 C8.278125 11.525625 7.55625 11.05125 6.8125 10.5625 C4.10524774 9.05847097 2.03805725 8.43400818 -1 8 C-1 7.67 -1 7.34 -1 7 C0.65 6.67 2.3 6.34 4 6 C4.33 4.68 4.66 3.36 5 2 C3.35 1.67 1.7 1.34 0 1 C0 0.67 0 0.34 0 0 Z " fill="#2E5E84" transform="translate(15,7)"/>
<path d="M0 0 C2.64 0 5.28 0 8 0 C8 0.66 8 1.32 8 2 C5.36 2.33 2.72 2.66 0 3 C0 2.01 0 1.02 0 0 Z " fill="#11396A" transform="translate(10,23)"/>
<path d="M0 0 C1.32 1.32 2.64 2.64 4 4 C3.01 4.495 3.01 4.495 2 5 C2 5.99 2 6.98 2 8 C1.34 8 0.68 8 0 8 C0 5.36 0 2.72 0 0 Z " fill="#4C819B" transform="translate(11,5)"/>
</svg>
